<svg xmlns="http://www.w3.org/2000/svg" xmlns:xlink="http://www.w3.org/1999/xlink" width="117" height="97" version="1.1" viewBox="0 0 117 97"><title>Page 1</title><desc>Created with Sketch.</desc><defs><path id="path-1" d="M60.842,1.553 L9.694,48.423 C8.469,49.544 8.656,51.1 10.106,51.902 L18.063,56.306 C19.516,57.109 19.998,58.91 19.147,60.331 L0.918,90.76 C0.068,92.18 0.45,92.515 1.775,91.507 L56.743,49.654 C58.079,48.637 57.899,47.313 56.367,46.677 L45.885,42.329 C44.356,41.693 43.693,39.961 44.412,38.46 L61.753,2.242 C62.181,1.349 62.21,0.878 61.907,0.878 C61.7,0.878 61.338,1.098 60.842,1.553 Z"/></defs><g id="Symbols" fill="none" fill-rule="evenodd" stroke="none" stroke-width="1"><g id="electricityMap-Logo-smallpadding" transform="translate(-37.000000, -22.000000)"><g id="Page-1" transform="translate(37.000000, 22.000000)"><polygon id="Fill-1" fill="#000" points="10.29 12.042 0 95.742 16.4 89.744 21.679 79.163 9.558 83.66 17.572 18.473 34.06 14.324 50.546 19.976 57.549 13.912 34.41 5.972"/><polygon id="Fill-2" fill="#000" points="88.32 15.951 100.431 19.97 107.553 83.864 85.292 74.933 60.042 85.56 51.919 82.107 44.335 87.59 60.027 94.258 85.365 83.595 117 96.285 107.826 13.982 91.301 8.498"/><g id="Group-5" transform="translate(24.000000, 0.029000)"><mask id="mask-2" fill="#fff"><use xlink:href="#path-1"/></mask><polygon id="Fill-3" fill="#000" points="-20.218 11.734 66.021 -5.029 82.789 81.237 -3.449 98" mask="url(#mask-2)"/></g></g></g></g></svg>