<svg xmlns="http://www.w3.org/2000/svg" xmlns:xlink="http://www.w3.org/1999/xlink" width="117" height="97" version="1.1" viewBox="0 0 117 97"><title>electricitymap-icon</title><desc>Created with Sketch.</desc><g id="Page-1" fill="none" fill-rule="evenodd" stroke="none" stroke-width="1"><g id="electricitymap-icon" fill="#000"><g id="signet"><polygon id="Fill-1" points="10.29 12.042 0 95.742 16.4 89.744 21.679 79.163 9.558 83.66 17.572 18.473 34.06 14.324 50.546 19.976 57.549 13.912 34.41 5.972"/><polygon id="Fill-2" points="88.32 15.951 100.431 19.97 107.553 83.864 85.292 74.933 60.042 85.56 51.919 82.107 44.335 87.59 60.027 94.258 85.365 83.595 117 96.285 107.826 13.982 91.301 8.498"/><g id="Clip-4" transform="translate(24.000000, 0.000000)"><path id="path-1" d="M60.842,1.582 L9.694,48.452 C8.469,49.573 8.656,51.129 10.106,51.931 L18.063,56.335 C19.516,57.138 19.998,58.939 19.147,60.36 L0.918,90.789 C0.068,92.209 0.45,92.544 1.775,91.536 L56.743,49.683 C58.079,48.666 57.899,47.342 56.367,46.706 L45.885,42.358 C44.356,41.722 43.693,39.99 44.412,38.489 L61.753,2.271 C62.181,1.378 62.21,0.907 61.907,0.907 C61.7,0.907 61.338,1.127 60.842,1.582 Z"/></g></g></g></g></svg>