<svg xmlns="http://www.w3.org/2000/svg" xmlns:xlink="http://www.w3.org/1999/xlink" id="Capa_1" width="516.4" height="516.4" x="0" y="0" enable-background="new 0 0 516.4 516.4" version="1.1" viewBox="0 0 516.4 516.4" xml:space="preserve"><g><g><path fill="#a9a9a9" d="M344.199,143.45c0-42.1-34.398-76.5-76.5-76.5c-42.099,0-76.499,34.4-76.499,76.5h38.2c0-21,17.2-38.2,38.2-38.2 c21,0,38.201,17.2,38.201,38.2s-17.201,38.2-38.201,38.2H38.2v38.2h229.499C309.801,220.05,344.199,185.55,344.199,143.45z"/><path fill="#a9a9a9" d="M439.801,143.45c-42.102,0-76.5,34.4-76.5,76.5H401.6c0-21,17.201-38.2,38.201-38.2S478,198.95,478,219.95 s-17.1,38.3-38.199,38.3H0v38.2h439.9c42.1,0,76.5-34.4,76.5-76.5C516.4,177.85,481.9,143.45,439.801,143.45z"/><path fill="#a9a9a9" d="M382.5,334.75H114.7v38.2h267.8c11.5,0,19.1,7.6,19.1,19.1s-7.6,19.101-19.1,19.101s-19.1-7.601-19.1-19.101h-38.201 c0,30.601,24.9,57.4,57.4,57.4s57.4-24.9,57.4-57.4S415,334.75,382.5,334.75z"/></g></g></svg>